# xmcd CD database file
#
# Track frame offsets:
#	150
#	22805
#	39833
#	54724
#	73665
#	91969
#	114960
#	126653
#
# Disc length: 1881 seconds
#
# Revision: 0
# Processed by: cddbd v1.5PL3 Copyright (c) Steve Scherf et al.
# Submitted via: CDex 1.51
#
DISCID=64075708
DTITLE=Sojiro - Glory
DYEAR=1998
DGENRE=New Age
TTITLE0=Calm Happiness
TTITLE1=Spring Clouds
TTITLE2=Path of the Country
TTITLE3=Bird Songs
TTITLE4=Freinds
TTITLE5=Side of a Fountain
TTITLE6=For Little Children
TTITLE7=Poem in the Evening
EXTD=YEAR: 1998
EXTT0=
EXTT1=
EXTT2=
EXTT3=
EXTT4=
EXTT5=
EXTT6=
EXTT7=
PLAYORDER=
